<?xml version="1.0" standalone="no"?>
<!DOCTYPE svg PUBLIC "-//W3C//DTD SVG 20010904//EN"
 "http://www.w3.org/TR/2001/REC-SVG-20010904/DTD/svg10.dtd">
<svg version="1.0" xmlns="http://www.w3.org/2000/svg"
 width="128.000000pt" height="128.000000pt" viewBox="0 0 128.000000 128.000000"
 preserveAspectRatio="xMidYMid meet">
<metadata>
Created by potrace 1.14, written by Peter Selinger 2001-2017
</metadata>
<g transform="translate(0.000000,128.000000) scale(0.100000,-0.100000)"
fill="#000000" stroke="none">
<path d="M480 1265 c-239 -67 -425 -261 -470 -493 -19 -95 -8 -261 23 -344 60
-164 175 -293 328 -367 95 -46 128 -53 269 -57 113 -2 132 0 206 24 178 60
314 180 391 348 44 96 53 149 50 284 -3 105 -7 136 -29 192 -72 189 -208 326
-396 396 -87 32 -285 41 -372 17z"/>
</g>
</svg>
